<svg width="150" height="150" viewBox="0 0 150 150" fill="none" xmlns="http://www.w3.org/2000/svg">
<path d="M133.096 132.363C134.924 132.363 136.406 130.881 136.406 129.053C136.406 127.224 134.924 125.742 133.096 125.742C131.267 125.742 129.785 127.224 129.785 129.053C129.785 130.881 131.267 132.363 133.096 132.363Z" fill="#64B5F6"/>
<path d="M124.922 136.025C126.152 136.025 127.148 135.029 127.148 133.799C127.148 132.569 126.152 131.572 124.922 131.572C123.692 131.572 122.695 132.569 122.695 133.799C122.695 135.029 123.692 136.025 124.922 136.025Z" fill="#448AFF"/>
<path d="M20.2734 21.6504C22.1018 21.6504 23.584 20.1682 23.584 18.3398C23.584 16.5115 22.1018 15.0293 20.2734 15.0293C18.4451 15.0293 16.9629 16.5115 16.9629 18.3398C16.9629 20.1682 18.4451 21.6504 20.2734 21.6504Z" fill="#64B5F6"/>
<path d="M28.4766 15.8203C29.7063 15.8203 30.7031 14.8234 30.7031 13.5938C30.7031 12.3641 29.7063 11.3672 28.4766 11.3672C27.2469 11.3672 26.25 12.3641 26.25 13.5938C26.25 14.8234 27.2469 15.8203 28.4766 15.8203Z" fill="#448AFF"/>
<g opacity="0.4">
<path opacity="0.4" d="M122.461 39.2285L132.1 29.6191C135.117 26.5723 132.979 21.3867 128.672 21.3867H99.375C98.7339 21.3867 98.0991 21.5135 97.5071 21.7597C96.9152 22.0059 96.3777 22.3668 95.9257 22.8215C95.4738 23.2762 95.1161 23.8158 94.8735 24.4092C94.6308 25.0026 94.5079 25.6382 94.5117 26.2793V55.5176C94.5117 59.7949 99.6973 61.9629 102.744 58.916L113.789 47.9004C120.241 56.3831 123.74 66.7446 123.75 77.4023C123.75 104.297 101.865 126.152 75 126.152C48.1348 126.152 26.25 104.297 26.25 77.4023C26.25 50.5078 48.1348 28.6523 75 28.6523H76.2305C77.8466 28.6523 79.3966 28.0103 80.5394 26.8675C81.6822 25.7247 82.3242 24.1748 82.3242 22.5586C82.3242 20.9424 81.6822 19.3925 80.5394 18.2497C79.3966 17.1069 77.8466 16.4648 76.2305 16.4648H75C41.3965 16.4648 14.0625 43.8281 14.0625 77.4023C14.0625 110.977 41.3965 138.34 75 138.34C108.604 138.34 135.938 111.006 135.938 77.4023C135.929 63.5134 131.174 50.0444 122.461 39.2285V39.2285Z" fill="#64B5F6"/>
<path opacity="0.4" d="M68.9064 89.5898H60.7032L63.1935 87.1289C66.797 83.5547 70.1368 79.541 70.1368 74.2969C70.1368 67.9395 65.215 62.7832 59.1505 62.7832C53.0861 62.7832 48.1935 67.5 48.1935 73.7695C48.2752 74.6805 48.6948 75.5279 49.3698 76.145C50.0448 76.7622 50.9263 77.1044 51.8409 77.1044C52.7555 77.1044 53.637 76.7622 54.312 76.145C54.987 75.5279 55.4067 74.6805 55.4884 73.7695C55.4884 71.25 57.3341 70.1074 59.1505 70.1074C60.9669 70.1074 62.8126 71.9824 62.8126 74.2969C62.8126 76.0547 61.9923 78.0176 58.0372 81.9141L55.2833 84.668C53.7306 86.2207 51.9728 88.0078 49.2775 90.6445C48.9314 90.9783 48.6568 91.379 48.4705 91.8222C48.2841 92.2654 48.1899 92.7419 48.1935 93.2226C48.1896 93.706 48.2815 94.1854 48.4638 94.6331C48.6461 95.0808 48.9152 95.4879 49.2557 95.8311C49.5961 96.1743 50.0011 96.4466 50.4474 96.6325C50.8936 96.8184 51.3722 96.9141 51.8556 96.914H68.9064C69.8776 96.914 70.8091 96.5282 71.4959 95.8414C72.1826 95.1547 72.5685 94.2232 72.5685 93.2519C72.5685 92.2807 72.1826 91.3492 71.4959 90.6624C70.8091 89.9757 69.8776 89.5898 68.9064 89.5898Z" fill="#64B5F6"/>
<path opacity="0.4" d="M98.1447 82.2949H96.9435V66.4453C96.9284 65.4788 96.5377 64.556 95.8542 63.8725C95.1706 63.189 94.2479 62.7983 93.2814 62.7832H92.0509C91.4795 62.7843 90.9164 62.9202 90.4073 63.1798C89.8983 63.4394 89.4576 63.8154 89.1212 64.2773L75.7032 82.5586C75.2405 83.1861 74.9938 83.9469 75.0001 84.7266V85.957C75.0001 86.4366 75.095 86.9114 75.2794 87.354C75.4638 87.7967 75.734 88.1985 76.0745 88.5362C76.4149 88.8739 76.8189 89.1409 77.263 89.3218C77.7072 89.5026 78.1827 89.5937 78.6622 89.5898H89.6193V93.2519C89.6193 94.2232 90.0051 95.1547 90.6919 95.8414C91.3786 96.5282 92.3101 96.914 93.2814 96.914C94.2526 96.914 95.1841 96.5282 95.8709 95.8414C96.5577 95.1547 96.9435 94.2232 96.9435 93.2519V89.5898H98.1447C98.6511 89.6353 99.1615 89.5747 99.6433 89.4121C100.125 89.2494 100.568 88.9882 100.943 88.6451C101.318 88.302 101.618 87.8845 101.823 87.4191C102.028 86.9538 102.134 86.4509 102.134 85.9424C102.134 85.4339 102.028 84.9309 101.823 84.4656C101.618 84.0003 101.318 83.5828 100.943 83.2397C100.568 82.8965 100.125 82.6353 99.6433 82.4727C99.1615 82.31 98.6511 82.2495 98.1447 82.2949V82.2949ZM84.9904 82.2949L89.6193 75.9375V82.2949H84.9904Z" fill="#64B5F6"/>
</g>
<path d="M122.461 34.3945L132.1 24.7852C135.117 21.7383 132.979 16.5527 128.672 16.5527H99.375C98.7339 16.5527 98.0991 16.6795 97.5071 16.9257C96.9152 17.1719 96.3777 17.5328 95.9257 17.9875C95.4738 18.4422 95.1161 18.9818 94.8735 19.5752C94.6308 20.1686 94.5079 20.8042 94.5117 21.4453V50.6836C94.5117 54.9609 99.6973 57.1289 102.744 54.082L113.789 43.0664C120.247 51.5571 123.746 61.9299 123.75 72.5977C123.75 99.4629 101.865 121.348 75 121.348C48.1348 121.348 26.25 99.4629 26.25 72.5977C26.25 45.7324 48.1348 23.8477 75 23.8477H76.2305C77.0307 23.8477 77.8231 23.69 78.5624 23.3838C79.3018 23.0776 79.9735 22.6287 80.5394 22.0628C81.1053 21.497 81.5541 20.8252 81.8604 20.0859C82.1666 19.3466 82.3242 18.5541 82.3242 17.7539C82.3242 16.9537 82.1666 16.1613 81.8604 15.4219C81.5541 14.6826 81.1053 14.0108 80.5394 13.445C79.9735 12.8791 79.3018 12.4303 78.5624 12.124C77.8231 11.8178 77.0307 11.6602 76.2305 11.6602H75C41.3965 11.6602 14.0625 38.9941 14.0625 72.5977C14.0625 106.201 41.3965 133.535 75 133.535C108.604 133.535 135.938 106.172 135.938 72.5977C135.936 58.6986 131.18 45.2183 122.461 34.3945V34.3945Z" fill="#448AFF"/>
<path d="M68.9063 84.7851H60.7031L63.1934 82.2949C66.7969 78.7207 70.1367 74.707 70.1367 69.4629C70.1367 63.1348 65.2148 57.9492 59.1504 57.9492C53.0859 57.9492 48.1934 62.666 48.1934 68.9355C48.1479 69.442 48.2085 69.9524 48.3711 70.4342C48.5338 70.916 48.795 71.3586 49.1381 71.7339C49.4812 72.1092 49.8987 72.4089 50.3641 72.6139C50.8294 72.819 51.3323 72.9249 51.8408 72.9249C52.3493 72.9249 52.8523 72.819 53.3176 72.6139C53.7829 72.4089 54.2004 72.1092 54.5435 71.7339C54.8867 71.3586 55.1479 70.916 55.3105 70.4342C55.4732 69.9524 55.5337 69.442 55.4883 68.9355C55.4883 66.416 57.334 65.2734 59.1504 65.2734C60.9668 65.2734 62.8125 67.1484 62.8125 69.4629C62.8125 71.2207 61.9922 73.1836 58.0371 77.1094L55.2832 79.8633C53.7305 81.416 51.9727 83.1738 49.2773 85.8105C48.9326 86.1453 48.659 86.5462 48.4727 86.9892C48.2865 87.4322 48.1915 87.9081 48.1934 88.3887C48.1895 88.872 48.2814 89.3514 48.4637 89.7991C48.646 90.2468 48.9151 90.654 49.2556 90.9971C49.596 91.3403 50.001 91.6127 50.4472 91.7985C50.8935 91.9844 51.3721 92.0801 51.8555 92.0801H68.9063C69.4127 92.1255 69.9231 92.065 70.4049 91.9023C70.8867 91.7397 71.3293 91.4785 71.7046 91.1353C72.0799 90.7922 72.3796 90.3747 72.5846 89.9094C72.7897 89.444 72.8956 88.9411 72.8956 88.4326C72.8956 87.9241 72.7897 87.4212 72.5846 86.9559C72.3796 86.4905 72.0799 86.073 71.7046 85.7299C71.3293 85.3868 70.8867 85.1256 70.4049 84.9629C69.9231 84.8002 69.4127 84.7397 68.9063 84.7851V84.7851Z" fill="#448AFF"/>
<path d="M98.1445 77.4609H96.9434V61.6113C96.9283 60.6448 96.5376 59.7221 95.854 59.0385C95.1705 58.355 94.2478 57.9643 93.2812 57.9492H92.0508C91.4794 57.9503 90.9162 58.0862 90.4072 58.3458C89.8981 58.6054 89.4575 58.9814 89.1211 59.4434L75.7031 77.7246C75.2459 78.355 74.9998 79.1138 75 79.8926V81.123C75 81.604 75.0947 82.0802 75.2788 82.5245C75.4628 82.9688 75.7325 83.3725 76.0726 83.7125C76.4127 84.0526 76.8164 84.3223 77.2607 84.5064C77.705 84.6904 78.1812 84.7851 78.6621 84.7851H89.6191V88.418C89.6191 89.3892 90.005 90.3207 90.6917 91.0075C91.3785 91.6942 92.31 92.0801 93.2812 92.0801C94.2525 92.0801 95.184 91.6942 95.8708 91.0075C96.5575 90.3207 96.9434 89.3892 96.9434 88.418V84.7851H98.1445C99.1158 84.7851 100.047 84.3993 100.734 83.7125C101.421 83.0258 101.807 82.0943 101.807 81.123C101.807 80.1518 101.421 79.2203 100.734 78.5335C100.047 77.8468 99.1158 77.4609 98.1445 77.4609ZM84.9902 77.4609L89.6191 71.1328V77.4609H84.9902Z" fill="#448AFF"/>
</svg>
