<svg width="200" height="200" viewBox="0 0 200 200" fill="none" xmlns="http://www.w3.org/2000/svg">
<path d="M23.7109 44.8438C26.0625 44.8438 27.9687 42.9375 27.9687 40.5859C27.9687 38.2344 26.0625 36.3281 23.7109 36.3281C21.3594 36.3281 19.4531 38.2344 19.4531 40.5859C19.4531 42.9375 21.3594 44.8438 23.7109 44.8438Z" fill="#64B5F6"/>
<path d="M13.0469 49.5312C14.6433 49.5312 15.9375 48.2371 15.9375 46.6406C15.9375 45.0442 14.6433 43.75 13.0469 43.75C11.4504 43.75 10.1562 45.0442 10.1562 46.6406C10.1562 48.2371 11.4504 49.5312 13.0469 49.5312Z" fill="#448AFF"/>
<path d="M171.289 168.633C173.641 168.633 175.547 166.727 175.547 164.375C175.547 162.023 173.641 160.117 171.289 160.117C168.938 160.117 167.031 162.023 167.031 164.375C167.031 166.727 168.938 168.633 171.289 168.633Z" fill="#64B5F6"/>
<path d="M181.953 161.211C183.55 161.211 184.844 159.917 184.844 158.32C184.844 156.724 183.55 155.43 181.953 155.43C180.357 155.43 179.062 156.724 179.062 158.32C179.062 159.917 180.357 161.211 181.953 161.211Z" fill="#448AFF"/>
<path opacity="0.4" d="M157.109 137.539H26.0938C24.3894 137.539 23.0078 138.921 23.0078 140.625V141.02C23.0078 142.724 24.3894 144.105 26.0938 144.105H157.109C158.814 144.105 160.195 142.724 160.195 141.02V140.625C160.195 138.921 158.814 137.539 157.109 137.539Z" fill="#64B5F6"/>
<path d="M161.016 52.0703H22.5C19.2424 52.0703 16.6016 54.7111 16.6016 57.9687V133.645C16.6016 136.902 19.2424 139.543 22.5 139.543H161.016C164.273 139.543 166.914 136.902 166.914 133.645V57.9687C166.914 54.7111 164.273 52.0703 161.016 52.0703Z" fill="#448AFF"/>
<path d="M64.1406 79.1407C64.1438 76.4347 63.4317 73.7759 62.0764 71.4338C60.7211 69.0917 58.7708 67.1494 56.4231 65.8037C54.0754 64.4581 51.4138 63.7569 48.7078 63.7712C46.0018 63.7855 43.3477 64.5149 41.0144 65.8853C38.6811 67.2557 36.7515 69.2185 35.4211 71.5749C34.0907 73.9313 33.4067 76.5974 33.4386 79.3032C33.4704 82.009 34.2169 84.6583 35.6024 86.9827C36.9879 89.3071 38.9632 91.224 41.3281 92.5391C41.9641 91.0844 43.0104 89.8467 44.339 88.9775C45.6677 88.1083 47.2209 87.6453 48.8086 87.6453C50.3963 87.6453 51.9495 88.1083 53.2781 88.9775C54.6067 89.8467 55.6531 91.0844 56.2891 92.5391C58.6708 91.2056 60.6539 89.261 62.034 86.9059C63.4141 84.5509 64.1413 81.8704 64.1406 79.1407V79.1407Z" fill="#64B5F6"/>
<path d="M48.7891 87.2266C46.8876 87.2407 45.031 87.8053 43.4435 88.852C41.8561 89.8988 40.6058 91.3829 39.8438 93.125C42.5819 94.6614 45.6689 95.4683 48.8086 95.4683C51.9483 95.4683 55.0353 94.6614 57.7734 93.125C57.0046 91.3798 55.7473 89.8943 54.1531 88.8477C52.559 87.8011 50.6961 87.2381 48.7891 87.2266V87.2266Z" fill="white"/>
<path d="M48.7889 72.5783C47.6748 72.5783 46.5857 72.9092 45.6598 73.529C44.734 74.1489 44.013 75.0297 43.5885 76.0598C43.1639 77.0899 43.0548 78.2229 43.275 79.3151C43.4953 80.4073 44.0349 81.4095 44.8255 82.1946C45.6161 82.9797 46.622 83.5123 47.7157 83.7249C48.8094 83.9375 49.9416 83.8205 50.9687 83.3888C51.9959 82.9571 52.8716 82.23 53.485 81.2999C54.0984 80.3697 54.4217 79.2784 54.4139 78.1642C54.414 77.4273 54.2682 76.6978 53.985 76.0175C53.7019 75.3372 53.2869 74.7197 52.7641 74.2005C52.2412 73.6813 51.6208 73.2706 50.9386 72.9922C50.2563 72.7138 49.5258 72.5731 48.7889 72.5783V72.5783Z" fill="white"/>
<path d="M151.602 63.7891H99.5312C97.6543 63.7891 96.1328 65.3106 96.1328 67.1875V67.6289C96.1328 69.5058 97.6543 71.0273 99.5312 71.0273H151.602C153.478 71.0273 155 69.5058 155 67.6289V67.1875C155 65.3106 153.478 63.7891 151.602 63.7891Z" fill="#F2F2F2"/>
<path d="M151.602 78.1641H87.5391C85.6622 78.1641 84.1406 79.6856 84.1406 81.5625V82.0039C84.1406 83.8808 85.6622 85.4024 87.5391 85.4024H151.602C153.478 85.4024 155 83.8808 155 82.0039V81.5625C155 79.6856 153.478 78.1641 151.602 78.1641Z" fill="#F2F2F2"/>
<path d="M107.5 113.516H31.1719C29.295 113.516 27.7734 115.037 27.7734 116.914V117.355C27.7734 119.232 29.295 120.754 31.1719 120.754H107.5C109.377 120.754 110.898 119.232 110.898 117.355V116.914C110.898 115.037 109.377 113.516 107.5 113.516Z" fill="#F2F2F2"/>
<path d="M132.305 113.516H120.273C118.397 113.516 116.875 115.037 116.875 116.914V117.355C116.875 119.232 118.397 120.754 120.273 120.754H132.305C134.182 120.754 135.703 119.232 135.703 117.355V116.914C135.703 115.037 134.182 113.516 132.305 113.516Z" fill="#F2F2F2"/>
<path d="M181.797 140.898C179.547 144.208 176.584 146.971 173.125 148.984C169.219 151.211 164.531 152.578 159.141 153.047H158.594C158.355 153.046 158.117 153.006 157.891 152.93H157.852L157.148 152.656L156.68 152.422C152.187 149.414 148.75 145.937 146.406 142.109C144.357 138.664 143.09 134.81 142.695 130.82C141.953 123.398 144.023 115.937 145.703 109.961V109.844C145.859 109.375 146.016 108.828 146.172 108.281C146.549 106.918 147.426 105.747 148.627 105.002C149.829 104.256 151.267 103.99 152.656 104.258C158.672 105.469 163.711 104.687 168.594 101.914H168.633C169.398 101.499 170.296 101.4 171.133 101.641C171.951 101.863 172.659 102.377 173.125 103.086V103.086C176.055 107.891 180.117 110.976 185.937 112.851C187.293 113.269 188.437 114.19 189.135 115.425C189.832 116.66 190.03 118.116 189.687 119.492C189.57 120.078 189.414 120.586 189.336 121.094C187.891 127.148 186.094 134.687 181.797 140.859V140.898Z" fill="#64B5F6"/>
<path d="M164.18 141.289C171.126 141.289 176.758 135.658 176.758 128.711C176.758 121.764 171.126 116.133 164.18 116.133C157.233 116.133 151.602 121.764 151.602 128.711C151.602 135.658 157.233 141.289 164.18 141.289Z" fill="#448AFF"/>
<path d="M169.062 128.281L168.281 128.086L168.554 127.031C168.732 126.531 168.804 125.999 168.765 125.47C168.726 124.94 168.577 124.424 168.329 123.955C168.08 123.486 167.736 123.074 167.319 122.745C166.902 122.416 166.422 122.178 165.908 122.044C165.394 121.911 164.858 121.886 164.334 121.971C163.81 122.056 163.309 122.25 162.864 122.539C162.418 122.828 162.038 123.206 161.746 123.65C161.455 124.094 161.259 124.593 161.172 125.117L160.898 126.172L160.117 125.977C160.081 125.965 160.043 125.96 160.006 125.964C159.968 125.967 159.931 125.979 159.898 125.997C159.865 126.015 159.836 126.04 159.814 126.071C159.791 126.101 159.774 126.135 159.765 126.172L158.086 132.773C158.014 133.053 158.056 133.35 158.203 133.598C158.349 133.847 158.588 134.028 158.867 134.102L166.25 136.016C166.529 136.087 166.826 136.045 167.075 135.899C167.324 135.752 167.504 135.513 167.578 135.234L169.258 128.633C169.269 128.597 169.274 128.559 169.27 128.521C169.267 128.484 169.255 128.447 169.237 128.414C169.219 128.381 169.194 128.352 169.164 128.329C169.134 128.307 169.099 128.29 169.062 128.281ZM164.179 131.328L163.945 132.852C163.948 132.892 163.939 132.933 163.918 132.968C163.897 133.003 163.865 133.031 163.828 133.047H163.633L162.578 132.773C162.497 132.744 162.429 132.689 162.383 132.617C162.36 132.589 162.348 132.555 162.348 132.519C162.348 132.484 162.36 132.45 162.383 132.422L162.929 130.937C162.812 130.816 162.731 130.663 162.697 130.497C162.662 130.331 162.675 130.159 162.734 130C162.766 129.859 162.826 129.726 162.911 129.609C162.996 129.492 163.104 129.394 163.229 129.321C163.353 129.248 163.491 129.201 163.635 129.183C163.778 129.166 163.924 129.178 164.062 129.219C164.341 129.292 164.58 129.473 164.726 129.722C164.873 129.971 164.915 130.267 164.844 130.547C164.794 130.717 164.71 130.874 164.595 131.009C164.481 131.143 164.339 131.252 164.179 131.328V131.328ZM166.719 127.695L162.461 126.602L162.734 125.547C162.806 125.267 162.932 125.005 163.105 124.774C163.279 124.543 163.496 124.349 163.744 124.202C163.993 124.055 164.268 123.958 164.554 123.918C164.839 123.877 165.13 123.893 165.41 123.965C165.69 124.037 165.952 124.163 166.183 124.336C166.414 124.509 166.608 124.727 166.755 124.975C166.902 125.224 166.999 125.498 167.039 125.784C167.08 126.07 167.064 126.361 166.992 126.641L166.719 127.695Z" fill="white"/>
</svg>
