<svg width="150" height="150" viewBox="0 0 150 150" fill="none" xmlns="http://www.w3.org/2000/svg">
<path d="M128.701 139.395C131.225 139.395 133.271 137.348 133.271 134.824C133.271 132.3 131.225 130.254 128.701 130.254C126.177 130.254 124.131 132.3 124.131 134.824C124.131 137.348 126.177 139.395 128.701 139.395Z" fill="#64B5F6"/>
<path d="M116.426 142.529C118.125 142.529 119.502 141.152 119.502 139.453C119.502 137.754 118.125 136.377 116.426 136.377C114.727 136.377 113.35 137.754 113.35 139.453C113.35 141.152 114.727 142.529 116.426 142.529Z" fill="#448AFF"/>
<path d="M32.6367 16.6113C35.1608 16.6113 37.207 14.5651 37.207 12.041C37.207 9.5169 35.1608 7.4707 32.6367 7.4707C30.1126 7.4707 28.0664 9.5169 28.0664 12.041C28.0664 14.5651 30.1126 16.6113 32.6367 16.6113Z" fill="#448AFF"/>
<path d="M19.8047 17.8418C21.5036 17.8418 22.8809 16.4645 22.8809 14.7656C22.8809 13.0667 21.5036 11.6895 19.8047 11.6895C18.1058 11.6895 16.7285 13.0667 16.7285 14.7656C16.7285 16.4645 18.1058 17.8418 19.8047 17.8418Z" fill="#64B5F6"/>
<path opacity="0.4" d="M123.633 97.8806C120.41 106.611 115.547 114.199 109.16 120.439C101.895 127.529 92.3731 133.183 80.8595 137.197C80.4824 137.349 80.0892 137.457 79.6876 137.519C79.1683 137.636 78.6378 137.695 78.1056 137.695H78.0177C77.4467 137.696 76.8771 137.637 76.3185 137.519C75.9214 137.449 75.5298 137.351 75.1466 137.226C63.6329 133.183 54.1114 127.558 46.8165 120.439C40.4298 114.228 35.5665 106.64 32.3438 97.9099C26.4845 82.031 26.836 64.5408 27.0997 50.4783V50.2732C27.1583 49.1013 27.1876 47.9002 27.2169 46.5525C27.2707 43.3519 28.5326 40.2899 30.7494 37.9807C32.9663 35.6715 35.9742 34.2857 39.17 34.1013C52.9395 33.3396 63.6036 28.8279 72.7149 19.9509L72.8028 19.8924C74.2345 18.542 76.1379 17.8059 78.1056 17.8416C80.0092 17.8683 81.8356 18.5988 83.2325 19.8924L83.2911 19.9509C92.4024 28.8279 103.066 33.3396 116.836 34.1013C120.032 34.292 123.04 35.6788 125.26 37.9859C127.48 40.293 128.751 43.3513 128.818 46.5525C128.818 47.9002 128.848 49.1013 128.906 50.2732V50.3611C129.199 64.4529 129.522 81.9724 123.633 97.8806Z" fill="#64B5F6"/>
<path d="M123.311 90.9961C120.224 99.505 115.268 107.214 108.809 113.555C101.543 120.674 92.0218 126.299 80.5081 130.342L79.3362 130.664C78.814 130.758 78.2847 130.807 77.7542 130.811H77.6663C77.097 130.805 76.5289 130.756 75.9671 130.664L74.8245 130.342C63.2815 126.328 53.76 120.674 46.4651 113.584C40.0784 107.344 35.2151 99.7559 31.9924 91.0254C26.1624 75.1465 26.4846 57.6563 26.7483 43.6231V43.3887C26.8069 42.2461 26.8362 41.0156 26.8655 39.668C26.9261 36.4695 28.1902 33.4113 30.4057 31.1035C32.6212 28.7957 35.6252 27.4079 38.8186 27.2168C52.6174 26.4551 63.2522 21.9727 72.3635 13.0957L72.4514 13.0078C73.899 11.6865 75.7943 10.9639 77.7542 10.9863C79.6572 10.988 81.489 11.7103 82.8811 13.0078L82.9397 13.0957C92.0511 21.9727 102.715 26.4551 116.514 27.2168C119.707 27.4079 122.711 28.7957 124.927 31.1035C127.142 33.4113 128.406 36.4695 128.467 39.668C128.496 41.0156 128.526 42.2461 128.584 43.3887V43.4766C128.848 57.5684 129.17 75.0879 123.311 90.9961Z" fill="#64B5F6"/>
<path d="M77.8418 102.715C93.5528 102.715 106.289 89.9786 106.289 74.2676C106.289 58.5566 93.5528 45.8203 77.8418 45.8203C62.1308 45.8203 49.3945 58.5566 49.3945 74.2676C49.3945 89.9786 62.1308 102.715 77.8418 102.715Z" fill="#448AFF"/>
<path d="M88.3008 70.5762H86.4551V68.1153C86.5236 66.94 86.3513 65.763 85.9486 64.6567C85.546 63.5504 84.9216 62.5379 84.1137 61.6816C83.3058 60.8252 82.3314 60.1429 81.2504 59.6766C80.1694 59.2103 79.0045 58.9697 77.8271 58.9697C76.6498 58.9697 75.4849 59.2103 74.4039 59.6766C73.3229 60.1429 72.3485 60.8252 71.5406 61.6816C70.7327 62.5379 70.1083 63.5504 69.7057 64.6567C69.303 65.763 69.1307 66.94 69.1992 68.1153V70.5762H67.3535C67.1903 70.5762 67.0339 70.641 66.9185 70.7564C66.8031 70.8718 66.7383 71.0283 66.7383 71.1915V86.6016C66.7459 87.2519 67.0076 87.8735 67.4675 88.3333C67.9274 88.7932 68.5489 89.0549 69.1992 89.0625H86.4551C87.1078 89.0625 87.7337 88.8033 88.1952 88.3418C88.6567 87.8802 88.916 87.2543 88.916 86.6016V71.1915C88.916 71.0283 88.8512 70.8718 88.7358 70.7564C88.6204 70.641 88.4639 70.5762 88.3008 70.5762V70.5762ZM79.2773 79.9512L79.6875 83.4375C79.6877 83.6188 79.6256 83.7946 79.5117 83.9356C79.4562 83.9978 79.3886 84.048 79.3131 84.0833C79.2375 84.1185 79.1556 84.138 79.0723 84.1407H76.6113C76.4349 84.1336 76.2675 84.0604 76.1426 83.9356C76.085 83.8673 76.0422 83.7877 76.017 83.702C75.9918 83.6162 75.9846 83.5262 75.9961 83.4375L76.377 79.9512C76.0642 79.7225 75.8107 79.4224 75.6374 79.0759C75.4641 78.7293 75.3762 78.3464 75.3809 77.959C75.3797 77.5371 75.4871 77.122 75.6926 76.7535C75.8981 76.385 76.195 76.0756 76.5546 75.8549C76.9142 75.6342 77.3245 75.5097 77.7461 75.4933C78.1677 75.4769 78.5864 75.5691 78.9621 75.7612C79.3377 75.9533 79.6577 76.2387 79.8913 76.5901C80.1248 76.9415 80.2641 77.347 80.2958 77.7677C80.3274 78.1885 80.2504 78.6103 80.072 78.9926C79.8937 79.375 79.62 79.7051 79.2773 79.9512ZM82.7637 70.5762H72.8906V68.1153C72.9865 66.8717 73.5482 65.7102 74.4634 64.8628C75.3786 64.0154 76.5799 63.5447 77.8271 63.5447C79.0744 63.5447 80.2757 64.0154 81.1909 64.8628C82.1061 65.7102 82.6678 66.8717 82.7637 68.1153V70.5762Z" fill="white"/>
</svg>
